<svg width="1949" height="1953" xmlns="http://www.w3.org/2000/svg" xmlns:xlink="http://www.w3.org/1999/xlink" xml:space="preserve" overflow="hidden"><defs><clipPath id="clip0"><rect x="237" y="259" width="1949" height="1953"/></clipPath><linearGradient x1="1211.5" y1="259" x2="1211.5" y2="2207" gradientUnits="userSpaceOnUse" spreadMethod="reflect" id="fill1"><stop offset="0" stop-color="#CAEEFB"/><stop offset="0.74" stop-color="#94669E"/><stop offset="1" stop-color="#78206E"/></linearGradient></defs><g clip-path="url(#clip0)" transform="translate(-237 -259)"><path d="M237 583.674C237 404.361 382.361 259 561.673 259L1861.33 259C2040.64 259 2186 404.361 2186 583.674L2186 1882.33C2186 2061.64 2040.64 2207 1861.33 2207L561.673 2207C382.361 2207 237 2061.64 237 1882.33Z" fill="url(#fill1)" fill-rule="evenodd"/><path d="M945.782 627.212C957.707 627.516 975.601 629.005 985.531 630.537 995.475 632.054 1008.48 634.627 1014.44 636.246 1020.41 637.865 1030.8 641.392 1037.57 644.094 1044.33 646.797 1054.4 651.639 1059.97 654.863 1065.53 658.086 1074.28 664.214 1079.4 668.478 1084.51 672.742 1092.19 680.461 1096.45 685.635 1100.71 690.795 1106.47 699.583 1109.26 705.148 1112.03 710.713 1115.57 719.66 1117.12 725.022 1119.88 734.533 1120.08 734.793 1125.37 735.573 1128.35 736.021 1133.71 737.048 1137.3 737.857 1140.88 738.667 1148.36 741.687 1153.92 744.564 1160.96 748.192 1167.8 753.539 1176.4 762.154 1184.76 770.509 1191.43 778.979 1196.96 788.258 1201.47 795.817 1207.83 808.826 1211.09 817.166 1214.34 825.506 1218.54 838.514 1220.42 846.074 1222.32 853.633 1224.51 863.708 1225.31 868.477 1226.12 873.247 1227.55 884.955 1228.49 894.495 1229.54 905.06 1229.88 920.873 1229.34 934.965 1228.86 947.685 1227.43 966.865 1226.19 977.604 1224.93 988.344 1222.59 1004.27 1220.99 1013.02 1219.37 1021.76 1215.83 1038.18 1213.09 1049.51 1210.36 1060.84 1208.12 1070.44 1208.12 1070.83 1208.12 1071.22 1212.34 1071.56 1217.52 1071.56 1223.24 1071.56 1229.88 1072.65 1234.5 1074.36 1238.68 1075.89 1245.34 1080.01 1249.32 1083.51 1253.29 1087.01 1258.61 1093.06 1261.13 1096.98 1263.64 1100.88 1267.38 1109.28 1269.45 1115.64 1271.52 1122 1273.92 1133.37 1274.77 1140.93 1275.64 1148.49 1275.9 1160.52 1275.38 1167.67 1274.84 1174.83 1273.43 1185.55 1272.21 1191.52 1271 1197.48 1268.37 1207.57 1266.37 1213.93 1264.38 1220.29 1259.41 1231.98 1255.31 1239.9 1249.81 1250.55 1245.04 1257.29 1237.03 1265.71 1227.98 1275.23 1223.95 1278.22 1212.59 1283.83 1199.15 1290.46 1198.83 1290.53 1168.37 1290.91L1163.89 1313.85C1161.42 1326.46 1157.65 1342.64 1155.5 1349.79 1153.34 1356.95 1149.9 1367.36 1147.85 1372.92 1145.8 1378.48 1140.64 1390.35 1136.37 1399.3 1132.11 1408.25 1125.3 1420.92 1121.22 1427.48 1117.16 1434.05 1110.18 1444.28 1105.73 1450.25 1101.26 1456.2 1090.31 1468.56 1065.1 1494.33 1065.09 1502.52 1065.08 1510.71 1065.07 1518.9 1065.06 1532.42 1065.68 1555.83 1066.44 1570.94 1067.22 1586.04 1068.21 1601.65 1069.39 1612.86L1114.55 1635.11 1213.9 1684.43 1276.06 1715.83 1299.18 1728.46C1307.52 1733.03 1318.91 1739.69 1324.48 1743.27 1330.04 1746.84 1341.78 1757 1350.55 1765.86 1359.34 1774.72 1369.53 1786.52 1373.22 1792.08 1376.9 1797.65 1383.19 1808.37 1387.21 1815.93 1391.21 1823.49 1397.48 1838.12 1401.14 1848.45 1404.8 1858.79 1410.64 1878.62 1414.12 1892.54 1417.62 1906.44 1422.43 1928.56 1424.82 1941.68 1427.22 1954.81 1431.44 1979.51 1434.18 1996.61 1436.94 2013.71 1440.6 2036.79 1442.31 2047.92 1444.01 2059.05 1447.65 2080.51 1450.42 2095.62 1453.16 2110.72 1455.21 2123.98 1454.98 2125.07 1454.69 2126.49 1452.63 2125.61 1448.06 2122.13 1444.47 2119.39 1440.79 2115.56 1439.83 2113.61 1438.9 2111.66 1436.15 2098.36 1433.75 2084.05 1431.35 2069.74 1427.72 2047.31 1425.7 2034.19 1423.68 2021.06 1419.05 1993.11 1415.41 1972.04 1411.78 1950.96 1406 1922.03 1402.56 1907.72 1399.1 1893.41 1393.55 1873.24 1390.2 1862.91 1386.85 1852.57 1381.22 1837.95 1377.7 1830.39 1374.17 1822.83 1366.97 1810.15 1361.71 1802.2 1356.2 1793.91 1346.82 1782.52 1339.7 1775.46 1332.86 1768.71 1322.73 1760.18 1317.19 1756.53 1311.66 1752.87 1299.66 1745.76 1290.51 1740.71 1281.36 1735.67 1235.83 1712.52 1189.33 1689.24 1142.83 1665.97 1104.44 1647.23 1104.05 1647.59 1103.66 1647.94 1104.4 1650.68 1105.72 1653.67 1107.03 1656.67 1109.16 1664.64 1110.44 1671.39 1111.74 1678.3 1112.75 1690.95 1112.74 1700.3 1112.71 1712.02 1111.83 1720.54 1109.73 1729.21 1108.1 1735.96 1104.07 1746.7 1100.77 1753.06 1096.16 1761.98 1091.62 1767.77 1080.99 1778.35 1071.75 1787.55 1063.61 1794.11 1056.36 1798.2 1050.4 1801.55 1039.66 1806.68 1032.51 1809.59 1025.35 1812.49 1012.34 1816.54 1003.6 1818.59 989.217 1821.96 984.794 1822.31 957.345 1822.34 929.637 1822.38 925.359 1822.03 908.202 1818.39 897.867 1816.19 881.606 1811.76 872.067 1808.52 862.527 1805.28 848.218 1799.64 840.268 1796 832.318 1792.36 821.261 1786.79 815.696 1783.64 810.131 1780.49 801.025 1774.86 795.461 1771.11 789.896 1767.37 780.14 1760.2 773.78 1755.18 767.42 1750.17 756.102 1739.82 748.644 1732.22 741.171 1724.6 731.386 1713.82 726.891 1708.25 722.396 1702.69 715.458 1693.58 711.468 1688.02 707.479 1682.45 699.674 1670.43 694.109 1661.28 688.559 1652.13 683.717 1643.76 683.37 1642.66 682.878 1641.17 680.696 1641.95 674.77 1645.72 670.405 1648.5 659.665 1655 650.92 1660.18 642.176 1665.35 606.735 1685.7 572.146 1705.42L494.095 1750.59C485.755 1755.72 475.015 1763.02 470.245 1766.79 465.476 1770.56 457.656 1777.8 452.872 1782.86 448.088 1787.94 441.309 1796.3 437.782 1801.48 434.269 1806.65 428.343 1817.38 424.629 1825.33 420.914 1833.28 415.566 1846.94 412.733 1855.68 409.914 1864.43 406.214 1877.12 404.523 1883.87 402.818 1890.62 398.901 1908.51 395.793 1923.61 392.685 1938.72 388.812 1958.55 387.164 1967.7 385.531 1976.85 381.96 1998.95 379.229 2016.84 376.511 2034.72 372.609 2064.66 370.571 2083.33 368.547 2102.01 366.885 2118.92 366.885 2120.91 366.885 2124.51 366.957 2124.52 384.591 2125.64L429.052 2128.25 488.313 2131.8C506.207 2132.91 539.48 2135.64 562.289 2137.85 585.083 2140.06 604.032 2141.55 604.393 2141.15 604.755 2140.74 605.723 2132.29 606.547 2122.36 607.371 2112.41 609.712 2086.4 611.721 2064.54 613.745 2042.67 617.011 2006.25 618.992 1983.6 620.972 1960.95 622.938 1941.26 623.386 1939.88 623.819 1938.49 625.973 1936.93 628.156 1936.44 630.338 1935.93 633.113 1936.18 634.299 1936.97 635.874 1938.04 636.423 1940.93 636.293 1947.65 636.192 1952.71 634.385 1977.02 632.275 2001.67 630.15 2026.31 627.433 2057.2 626.233 2070.32 625.019 2083.45 622.822 2105.88 621.348 2120.19 619.873 2134.5 617.46 2161.01 613.34 2211.99L598.164 2211.97 598.973 2205.83C599.421 2202.45 600.635 2190.58 601.661 2179.45 602.702 2168.32 603.15 2158.75 602.659 2158.19 602.182 2157.62 599.508 2156.83 596.718 2156.42 593.928 2156.02 575.081 2154.05 554.801 2152.04 534.537 2150.04 499.081 2147.1 476.027 2145.51 452.973 2143.92 423.631 2142.13 387.569 2140.42L372.681 2139.7 366.899 2139.7C363.72 2139.7 358.849 2138.73 356.059 2137.53 351.347 2135.51 351 2134.92 351 2128.86 351 2125.29 352.619 2107.89 354.599 2090.2 356.579 2072.51 359.239 2049.58 360.511 2039.25 361.783 2028.91 366.018 2001.91 369.935 1979.26 373.852 1956.61 379.041 1928.31 381.469 1916.39 383.912 1904.46 387.439 1888.52 389.346 1880.98 391.24 1873.42 395.793 1858.46 399.479 1847.73 403.15 1837.01 409.654 1821.38 413.904 1813.04 418.168 1804.7 425.005 1793.31 429.109 1787.75 433.214 1782.18 439.589 1774.49 443.289 1770.65 446.989 1766.8 454.895 1759.72 460.851 1754.92 466.82 1750.11 480.146 1741.16 490.481 1735.05 500.816 1728.92 516.759 1719.66 525.893 1714.45L576.482 1685.83 618.399 1661.98 653.811 1641.01C668.916 1632.05 686.087 1621.41 691.97 1617.35 697.853 1613.29 706.193 1605.74 710.5 1600.57 714.807 1595.39 721.326 1585 724.997 1577.44 730.316 1566.52 732.499 1559.58 735.679 1543.48 737.876 1532.35 740.709 1513.82 741.966 1502.28 743.224 1490.75 744.655 1473.52 746.086 1446.63L739.061 1437.96C735.202 1433.19 728.235 1423.44 723.595 1416.28 718.941 1409.13 711.642 1396.12 707.393 1387.37 703.129 1378.63 697.246 1364 694.297 1354.85 691.363 1345.7 687.402 1330.76 685.509 1321.61 683.601 1312.46 681.549 1301.3 679.828 1288.64L666.097 1289.39C654.476 1290.03 650.92 1289.65 642.971 1286.98 637.811 1285.23 630.656 1282.11 627.072 1280.02 623.501 1277.96 617.387 1273.29 613.514 1269.66 609.64 1266.03 603.714 1259.49 600.346 1255.12 596.978 1250.76 591.616 1241.97 588.45 1235.61 585.271 1229.25 581.325 1220.14 579.691 1215.37 578.058 1210.6 575.297 1199.86 573.563 1191.52 571.264 1180.51 570.397 1171.2 570.383 1157.56 570.368 1143.32 571.106 1135.7 573.418 1126.12 575.109 1119.17 578.304 1109.73 580.515 1105.16 582.741 1100.59 586.803 1094.02 589.549 1090.53 592.295 1087.06 597.152 1082.42 600.332 1080.21 603.511 1078.02 610.016 1074.87 614.786 1073.23 621.232 1071.03 623.415 1069.6 623.313 1067.65 623.241 1066.22 621.81 1054.64 620.134 1041.92 618.457 1029.21 616.679 1009.69 616.173 998.563 615.667 987.375 615.971 968.947 616.853 957.369 617.734 945.835 619.758 928.273 621.362 918.343 622.966 908.399 626.58 891.17 629.384 880.041 632.174 868.911 638.085 850.381 642.494 838.847 646.902 827.312 654.838 809.433 660.113 799.098 665.389 788.764 674.495 773.154 680.349 764.409 686.188 755.664 696.335 742.005 702.883 734.056 709.416 726.106 720.242 714.499 726.934 708.27 733.626 702.026 744.944 692.558 752.099 687.225 759.253 681.891 769.993 674.505 775.948 670.82 781.917 667.134 792.96 661.193 800.52 657.623 808.079 654.053 820.755 648.792 828.705 645.93 836.655 643.054 850.964 638.79 860.504 636.448 870.043 634.092 885.336 631.201 894.47 630.002 903.62 628.816 914.012 627.573 917.597 627.256 921.182 626.938 933.858 626.909 945.782 627.212ZM1305.64 1925.75C1306.47 1925.74 1308.29 1926.56 1309.71 1927.56 1311.6 1928.91 1312.83 1933.27 1314.32 1943.85 1315.44 1951.8 1317.68 1969.36 1319.3 1982.88 1320.94 1996.39 1322.9 2015.59 1323.67 2025.52 1324.45 2035.46 1325.78 2058.54 1326.63 2076.83 1327.5 2095.11 1328.5 2114.78 1329.54 2131.03L1338.57 2131.03C1343.54 2131.03 1358.33 2130.06 1371.45 2128.86 1384.58 2127.66 1397.59 2126.39 1405.42 2125.39L1399.96 2127.85C1396.95 2129.21 1394.49 2130.62 1394.51 2131.03 1394.52 2131.43 1397.8 2133.21 1401.78 2135 1405.77 2136.8 1408.77 2138.75 1408.47 2139.34 1408.15 2139.93 1403.44 2140.86 1397.99 2141.39L1368.56 2144.04 1339.65 2146.7C1330.36 2147.65 1330.26 2147.72 1330.37 2152 1330.45 2154.37 1330.94 2168.84 1332.43 2211.97L1317.97 2211.97 1317.21 2189.93C1316.79 2177.8 1315.49 2145.77 1314.3 2118.74 1313.12 2091.71 1311.15 2056.27 1309.95 2039.97 1308.74 2023.67 1306.79 2001.57 1305.6 1990.83 1304.42 1980.1 1302.43 1963.84 1301.21 1954.69 1299.98 1945.56 1298.94 1936.12 1298.91 1933.73 1298.85 1931.07 1299.86 1928.7 1301.5 1927.59 1302.97 1926.59 1304.83 1925.77 1305.64 1925.75ZM1421.97 2151.78C1422.81 2152.29 1424.63 2155.66 1426.02 2159.26 1427.4 2162.87 1428.88 2165.82 1429.27 2165.82 1429.66 2165.82 1431.02 2163.35 1432.28 2160.34 1434.56 2154.89 1434.56 2154.94 1435.57 2175.11 1436.12 2186.24 1436.87 2199.09 1437.94 2211.97L1424.21 2212 1423.15 2197.89C1422.58 2190.13 1421.72 2176.37 1421.28 2167.32 1420.73 2156.03 1420.94 2151.13 1421.97 2151.78Z" fill="#010001" fill-rule="evenodd"/><path d="M1090.04 677.423C1094.33 682.193 1098.81 687.077 1100.01 688.262 1101.21 689.448 1100.19 687.829 1097.73 684.649 1095.27 681.47 1090.79 676.599 1087.76 673.81 1084.16 670.501 1084.94 671.743 1090.04 677.423ZM1230.86 920.944C1230.86 930.078 1231.09 933.662 1231.38 928.893 1231.67 924.124 1231.67 916.637 1231.38 912.273 1231.09 907.908 1230.86 911.81 1230.86 920.944ZM1208.66 1068.72C1208.63 1070.89 1209.92 1071.2 1217.66 1070.99L1226.7 1070.71C1214.37 1069.86 1210.32 1068.83 1209.74 1067.89 1209.03 1066.78 1208.67 1067.05 1208.66 1068.72ZM1080.71 1479.16 1067.73 1492.53C1088.47 1472.37 1094.48 1466.36 1094.48 1466.16 1094.46 1465.95 1094.29 1465.79 1094.07 1465.79 1093.86 1465.79 1087.84 1471.81 1080.71 1479.16ZM1066.1 1540.22C1066.1 1548.17 1066.34 1551.09 1066.63 1546.73 1066.92 1542.36 1066.92 1535.86 1066.62 1532.28 1066.33 1528.69 1066.08 1532.28 1066.1 1540.22ZM1202.84 1677.54C1202.84 1677.93 1206.75 1680.19 1211.52 1682.58 1216.29 1684.96 1220.5 1686.76 1220.86 1686.55 1221.22 1686.35 1217.32 1684.08 1212.17 1681.51 1207.01 1678.94 1202.82 1677.14 1202.84 1677.54ZM1113.81 1699.92C1113.81 1709.85 1114.05 1713.77 1114.32 1708.59 1114.61 1703.42 1114.61 1695.3 1114.32 1690.53 1114.05 1685.76 1113.81 1689.98 1113.81 1699.92ZM1350.98 1764.96C1357.34 1771.33 1362.86 1776.55 1363.26 1776.55 1363.65 1776.55 1358.97 1771.33 1352.86 1764.97 1346.73 1758.6 1341.19 1753.39 1340.57 1753.38 1339.94 1753.38 1344.62 1758.58 1350.98 1764.96ZM456.386 1779.77 446.313 1790.25C462.571 1774.57 467.283 1769.86 467.283 1769.65 467.268 1769.45 467.094 1769.29 466.863 1769.29 466.647 1769.29 461.935 1774 456.386 1779.77ZM948.504 1823.84C952.868 1824.12 960.354 1824.12 965.123 1823.84 969.892 1823.55 966.308 1823.32 957.175 1823.32 948.027 1823.32 944.125 1823.55 948.504 1823.84ZM1327.61 2077.85C1327.61 2083.41 1327.87 2085.36 1328.19 2082.18 1328.49 2079 1328.49 2074.45 1328.17 2072.07 1327.86 2069.68 1327.6 2072.28 1327.61 2077.85ZM1329.1 2107.48C1329.1 2115.02 1329.34 2117.95 1329.65 2113.98 1329.94 2110 1329.94 2103.82 1329.65 2100.25 1329.34 2096.68 1329.1 2099.93 1329.1 2107.48ZM1440.58 2117.23C1441.13 2119.75 1440.56 2120.64 1438.05 2121.16 1436.26 2121.54 1429.1 2122.51 1422.15 2123.33 1415.2 2124.15 1409.02 2124.73 1408.42 2124.62 1407.83 2124.51 1404.55 2125.66 1401.15 2127.15 1397.76 2128.65 1394.98 2130.19 1394.98 2130.6 1395 2131 1398.28 2132.78 1402.25 2134.57 1406.24 2136.37 1409.17 2138.48 1408.78 2139.27 1408.32 2140.2 1410.08 2140.33 1413.73 2139.63L1419.41 2138.55C1419.74 2157.58 1420.39 2169.3 1421.07 2176.85 1422.2 2189.58 1422.25 2189.13 1421.68 2170.7 1421.29 2157.74 1421.57 2151.08 1422.51 2151.56 1423.31 2151.96 1425.1 2155.23 1426.49 2158.82 1427.87 2162.44 1429.51 2165.36 1430.1 2165.33 1430.69 2165.31 1431.94 2162.84 1432.86 2159.87 1433.79 2156.89 1434.44 2150.38 1434.31 2145.41L1434.07 2136.38C1447.33 2134.7 1450.26 2133.42 1453.22 2130.35 1455.42 2128.1 1457.11 2124.8 1456.99 2123.01L1456.81 2119.76C1455.77 2126.15 1455.62 2126.18 1451.78 2123.91 1449.6 2122.61 1446.01 2119.85 1443.83 2117.77 1439.94 2114.08 1439.87 2114.07 1440.58 2117.23ZM392.12 2125.87C394.895 2126.18 399.779 2126.18 402.959 2125.87 406.138 2125.56 403.855 2125.31 397.901 2125.31 391.932 2125.31 389.331 2125.56 392.12 2125.87ZM441.978 2128.75C444.362 2129.07 448.915 2129.07 452.094 2128.76 455.273 2128.45 453.322 2128.19 447.759 2128.19 442.195 2128.17 439.593 2128.43 441.978 2128.75ZM400.068 2141.77C403.248 2142.07 408.768 2142.07 412.352 2141.77 415.922 2141.47 413.32 2141.22 406.572 2141.22 399.808 2141.22 396.889 2141.47 400.068 2141.77ZM428.249 2143.22C431.819 2143.52 437.021 2143.52 439.81 2143.22 442.585 2142.9 439.665 2142.65 433.307 2142.65 426.948 2142.67 424.665 2142.91 428.249 2143.22ZM449.204 2144.65C451.588 2144.96 456.14 2144.96 459.32 2144.66 462.499 2144.34 460.548 2144.08 454.984 2144.08 449.42 2144.07 446.819 2144.33 449.204 2144.65ZM1316.06 2161.67C1316.08 2168.03 1316.32 2170.3 1316.63 2166.73 1316.93 2163.16 1316.93 2157.94 1316.63 2155.17 1316.31 2152.39 1316.06 2155.31 1316.06 2161.67ZM1332 2173.96C1332 2182.31 1332.25 2185.56 1332.54 2181.18 1332.83 2176.8 1332.83 2169.98 1332.54 2166.01 1332.25 2162.03 1332 2165.6 1332 2173.96ZM1437.46 2192.02C1437.47 2198.38 1437.72 2200.65 1438.02 2197.08 1438.32 2193.51 1438.32 2188.29 1438.02 2185.52 1437.7 2182.74 1437.46 2185.66 1437.46 2192.02ZM1317.52 2199.97C1317.52 2206.72 1317.77 2209.32 1318.07 2205.75 1318.38 2202.18 1318.38 2196.65 1318.07 2193.47 1317.77 2190.29 1317.52 2193.22 1317.52 2199.97ZM1333.39 2202.14C1333.39 2207.7 1333.65 2209.65 1333.97 2206.47 1334.27 2203.29 1334.27 2198.74 1333.95 2196.36 1333.64 2193.97 1333.38 2196.57 1333.39 2202.14Z" fill-rule="evenodd"/><path d="M1438.79 2195.93C1438.89 2195.02 1439.03 2195.24 1439.19 2196.83 1439.5 2200.01 1439.5 2204.89 1439.19 2207.68 1438.88 2210.45 1438.62 2207.85 1438.62 2201.89 1438.62 2198.91 1438.69 2196.85 1438.79 2195.93ZM1315.98 2178.2C1316.08 2177.15 1316.22 2177.5 1316.37 2179.48 1316.67 2183.46 1316.66 2189.32 1316.35 2192.5 1316.05 2195.68 1315.82 2192.42 1315.82 2185.27 1315.82 2181.69 1315.88 2179.25 1315.98 2178.2ZM389.216 2141.23 397.424 2141.91C401.932 2142.28 417.973 2143.25 433.074 2144.08 448.175 2144.9 475.169 2146.58 493.045 2147.79 510.935 2149.02 534.346 2150.94 545.068 2152.1 555.805 2153.24 572.381 2154.88 581.918 2155.74 591.456 2156.61 600.039 2157.75 601.008 2158.27 602.352 2159.01 602.178 2165.14 597.742 2211.28L563.595 2211.4 542.882 2210.35C488.304 2204.81 437.722 2185.74 394.537 2156.55L388 2151.15 388.062 2150.13C388.212 2148.01 388.345 2146.54 388.45 2145.9ZM1314.52 2139.96C1314.62 2138.78 1314.76 2138.84 1314.91 2140.43 1315.21 2143.61 1315.21 2149.15 1314.91 2152.72 1314.61 2156.29 1314.36 2153.69 1314.36 2146.94 1314.36 2143.56 1314.42 2141.14 1314.52 2139.96ZM1415.88 2139.71C1418.97 2139.71 1419.16 2140.29 1419.24 2150.19 1419.29 2155.96 1419.97 2168.8 1420.75 2178.75 1421.53 2188.68 1422.19 2200.23 1422.24 2212L1334.09 2212 1333.31 2192.12C1332.89 2181.19 1332.39 2166.7 1331.92 2147.66L1351.43 2146.62C1362.16 2146.06 1380.04 2144.54 1391.17 2143.25 1402.29 2141.96 1411.67 2140.63 1412 2140.32 1412.34 2139.98 1414.07 2139.71 1415.88 2139.71ZM1436.33 2136.85C1438.48 2136.86 1438.54 2137.06 1436.69 2138.21 1434.92 2139.3 1434.71 2141.53 1435.53 2150.12 1436.11 2156.32 1436.02 2159.18 1435.31 2157.06 1434.63 2155.08 1434.03 2149.7 1433.94 2145.13 1433.82 2138.12 1434.2 2136.82 1436.33 2136.85ZM1438.16 2112.96 1439.95 2116.32C1441.44 2119.09 1441.37 2119.9 1439.58 2121 1438.38 2121.72 1435.13 2122.23 1427.29 2121.95L1433.07 2121.07C1438.17 2120.29 1438.81 2119.76 1438.51 2116.58ZM1313.08 2108.15C1313.18 2106.97 1313.31 2107.03 1313.46 2108.62 1313.77 2111.8 1313.77 2117.34 1313.46 2120.91 1313.16 2124.48 1312.91 2121.88 1312.91 2115.13 1312.91 2111.75 1312.98 2109.33 1313.08 2108.15ZM1311.6 2081.06C1311.7 2080.02 1311.85 2079.96 1312 2081.15 1312.32 2083.54 1312.32 2088.09 1312.02 2091.27 1311.7 2094.46 1311.44 2092.5 1311.44 2086.94 1311.43 2084.15 1311.49 2082.11 1311.6 2081.06ZM1115.09 1694.22C1115.19 1693.31 1115.33 1693.53 1115.49 1695.12 1115.79 1698.3 1115.79 1703.19 1115.49 1705.96 1115.17 1708.74 1114.92 1706.15 1114.92 1700.18 1114.92 1697.2 1114.99 1695.14 1115.09 1694.22ZM1067.08 1491.98C1067.29 1491.98 1067.15 1499.95 1066.04 1527.41L1065.7 1511.59C1065.52 1502.9 1065.66 1494.93 1066.02 1493.88 1066.38 1492.84 1066.85 1491.98 1067.08 1491.98ZM1276.96 1148.97C1277.06 1147.53 1277.19 1147.53 1277.34 1149.33 1277.64 1152.91 1277.64 1159.42 1277.35 1163.78 1277.06 1168.15 1276.82 1165.23 1276.82 1157.28 1276.81 1153.3 1276.87 1150.42 1276.96 1148.97ZM615.307 973.161C615.368 973.281 615.433 973.912 615.502 975.104 615.791 979.876 615.791 988.016 615.502 993.177 615.228 998.339 614.996 994.45 614.996 984.502 614.996 977.042 615.126 972.802 615.307 973.161ZM938.854 625C946.007 625 949.259 625.246 946.08 625.549 942.901 625.853 937.048 625.853 933.074 625.564 929.1 625.26 931.701 625.014 938.854 625Z" fill="#FAC39A" fill-rule="evenodd"/><path d="M681.218 1644C682.013 1643.96 684.775 1647.82 687.364 1652.59 689.952 1657.36 696.214 1667.61 701.29 1675.35 706.366 1683.1 715.288 1695.63 721.116 1703.18 726.958 1710.74 737.601 1723.01 744.789 1730.46 751.976 1737.92 764.369 1749.22 772.322 1755.59 780.276 1761.97 792.308 1770.76 799.075 1775.12 805.843 1779.49 819.494 1787.15 829.443 1792.15 839.378 1797.15 852.726 1803.21 859.089 1805.59 865.452 1807.99 876.182 1811.58 882.949 1813.57 889.717 1815.55 902.4 1818.69 911.149 1820.53 924.886 1823.42 931.192 1823.88 957.424 1823.87 976.975 1823.87 990.887 1823.19 996.469 1821.97 1001.24 1820.93 1011.65 1818.1 1019.61 1815.68 1027.56 1813.26 1039.92 1808.33 1047.08 1804.74 1054.24 1801.14 1064.65 1794.74 1070.22 1790.5 1075.79 1786.27 1083.34 1779.36 1086.99 1775.15 1090.65 1770.95 1096.38 1763.28 1099.72 1758.11 1103.06 1752.95 1107.41 1743.51 1109.41 1737.15 1111.41 1730.79 1113.72 1720.71 1114.56 1714.74 1115.38 1708.79 1115.64 1698.38 1115.12 1691.62 1114.62 1684.87 1112.97 1674.12 1111.46 1667.76 1109.97 1661.4 1108.38 1655.06 1107.92 1653.67 1107.47 1652.28 1107.75 1651.14 1108.54 1651.14 1109.34 1651.14 1132.92 1662.45 1160.96 1676.28 1189 1690.1 1226.91 1709.18 1245.2 1718.68 1263.49 1728.16 1284 1738.85 1290.75 1742.43 1297.5 1746.01 1307.6 1751.92 1313.17 1755.58 1318.73 1759.22 1326.98 1765.37 1331.47 1769.2 1335.97 1773.04 1342.18 1779.11 1345.26 1782.68 1348.35 1786.27 1354.42 1794.06 1358.78 1800.01 1363.11 1805.98 1370.03 1817.69 1374.13 1826.03 1378.24 1834.39 1384.23 1849.03 1387.45 1858.57 1390.69 1868.11 1396.55 1889.25 1400.48 1905.55 1404.42 1921.86 1411.26 1956.33 1415.67 1982.16 1420.09 2008.01 1425.05 2038.58 1426.71 2050.1 1428.36 2061.62 1431.33 2079.85 1433.31 2090.58 1435.28 2101.32 1437.52 2112.2 1438.3 2114.79 1439.34 2118.29 1439.24 2119.66 1437.89 2120.17 1436.89 2120.54 1423.72 2122.16 1408.61 2123.75 1393.5 2125.36 1372.02 2127.34 1360.89 2128.16 1349.75 2128.98 1338.53 2129.97 1331.24 2131.05L1330.53 2116.23C1330.14 2108.08 1329.16 2088.73 1328.35 2073.23 1327.54 2057.74 1326.18 2035.6 1325.33 2024.08 1324.47 2012.56 1321.87 1988 1319.56 1969.52 1317.23 1951.03 1315.34 1934.94 1315.34 1933.74 1315.34 1932.55 1313.7 1929.95 1311.72 1927.96 1309.72 1925.98 1306.8 1924.34 1305.21 1924.34 1303.62 1924.34 1300.93 1925.8 1299.23 1927.6 1296.75 1930.18 1296.32 1931.87 1297.07 1935.91 1297.59 1938.7 1299.95 1956.91 1302.29 1976.38 1304.63 1995.85 1307.54 2026.11 1308.74 2043.6 1309.93 2061.09 1311.89 2098.48 1313.09 2126.71 1314.29 2154.95 1315.62 2185.68 1316.78 2212L615.42 2212 615.42 2208.75C615.42 2206.96 616.736 2189.23 618.326 2169.36 619.932 2149.48 621.869 2128.35 622.636 2122.38 623.388 2116.42 625.326 2097.23 626.931 2079.74 628.521 2062.25 630.778 2036.56 631.934 2022.64 633.077 2008.73 634.422 1991.49 634.913 1984.33 635.405 1977.18 636.475 1966.12 637.299 1959.76 638.109 1953.4 638.89 1946.47 639.035 1944.36 639.165 1942.22 637.994 1939.16 636.388 1937.45 634.797 1935.75 632.195 1934.36 630.604 1934.35 629.013 1934.35 626.251 1935.5 624.458 1936.93 621.508 1939.29 621.002 1941.76 618.977 1964.09 617.763 1977.61 615.81 2000.06 614.653 2013.96 613.511 2027.89 611.255 2052.92 609.65 2069.62 608.045 2086.31 606.006 2108.76 605.124 2119.49 604.227 2130.23 603.2 2139.32 602.853 2139.72 602.506 2140.13 583.88 2138.65 561.451 2136.46 539.037 2134.26 507.034 2131.51 490.332 2130.36 473.629 2129.22 439.472 2127.21 414.411 2125.91 389.35 2124.6 368.526 2123.23 368.136 2122.86 367.731 2122.48 368.266 2114.25 369.307 2104.57 370.348 2094.88 372.141 2079.16 373.313 2069.62 374.47 2060.08 376.133 2047.07 376.986 2040.71 377.839 2034.35 381.049 2013.53 384.13 1994.45 387.195 1975.37 392.69 1945.13 396.32 1927.23 399.964 1909.35 404.954 1887.24 407.397 1878.09 409.841 1868.95 414.078 1855.29 416.826 1847.73 419.574 1840.19 424.375 1828.79 427.484 1822.43 430.607 1816.07 435.611 1807.17 438.604 1802.63 441.612 1798.11 447.31 1790.65 451.287 1786.08 455.263 1781.51 463.072 1774.14 468.64 1769.72 474.207 1765.29 486.239 1757.07 495.393 1751.45 504.533 1745.81 518.213 1737.74 525.761 1733.52 533.31 1729.29 542.435 1724.08 546.007 1721.93 549.579 1719.79 573.338 1706.19 598.79 1691.7 624.241 1677.22 652.874 1660.58 662.418 1654.73 671.963 1648.89 680.422 1644.06 681.218 1644ZM1436.79 2147.67C1437.49 2149.26 1438.11 2153.82 1438.2 2157.79 1438.27 2161.77 1438.08 2164.7 1437.78 2164.3 1437.46 2163.89 1436.84 2159.35 1436.37 2154.18 1435.87 2148.37 1436.03 2145.88 1436.79 2147.67Z" fill="#FEFDFE" fill-rule="evenodd"/><path d="M943.549 643.362C943.52 643.564 946.93 646.383 951.135 649.621 955.354 652.874 962.925 659.697 967.982 664.8 973.025 669.903 979.975 677.984 983.413 682.754 986.852 687.525 992.834 697.615 996.692 705.161 1000.55 712.707 1005.75 726.05 1008.24 734.796 1010.74 743.542 1013.13 753.792 1013.6 757.565L1014.42 764.431C1049.55 765.255 1053.01 764.966 1054.56 763.072 1055.59 761.829 1057.69 756.581 1059.26 751.421 1060.82 746.26 1062.85 736.502 1063.79 729.737 1065.08 720.355 1065.08 714.63 1063.79 705.523 1062.87 698.96 1060.38 689.202 1058.3 683.839 1056.21 678.475 1053.76 673.185 1052.88 672.086 1051.99 670.987 1046.22 667.575 1040.07 664.496 1033.91 661.417 1023.18 657.24 1016.23 655.215 1009.28 653.177 999.033 650.546 993.47 649.375 987.907 648.19 975.206 646.282 965.237 645.111 955.267 643.954 946.323 643 945.37 643 944.401 643 943.592 643.159 943.549 643.362ZM901.72 645.949C896.561 646.658 885.826 648.624 877.879 650.33 869.932 652.035 854.66 656.3 843.924 659.798 833.189 663.311 822.8 667.041 820.806 668.11 818.827 669.18 817.844 670.394 818.639 670.814 819.433 671.233 824.967 672.375 830.92 673.358 836.888 674.327 846.958 676.755 853.316 678.75 859.673 680.745 870.727 685.096 877.879 688.421 885.031 691.761 896.72 698.352 903.873 703.08 911.054 707.836 924.52 719.082 934.027 728.291 943.477 737.427 955.802 750.77 961.422 757.926 967.043 765.082 971.681 771.124 971.724 771.341 971.768 771.572 978.718 770.59 987.156 769.173 995.608 767.756 1003.09 766.094 1003.77 765.472 1004.48 764.836 1004.13 760.369 1003.01 755.353 1001.89 750.409 998.903 740.174 996.36 732.628 993.817 725.082 989.612 714.659 987.011 709.498 984.425 704.337 979.281 695.548 975.596 689.982 971.912 684.431 964.298 675.324 958.677 669.744 953.056 664.178 943.621 656.401 937.726 652.44 928.45 646.238 925.936 645.227 919.058 644.966 914.695 644.807 906.878 645.241 901.72 645.949ZM786.1 686.383C779.367 690.43 767.721 698.425 760.222 704.149 752.723 709.874 740.239 721.063 732.451 729.014 724.678 736.965 713.74 749.484 708.148 756.842 702.571 764.2 697.991 770.864 697.991 771.659 697.991 772.454 700.751 771.89 704.132 770.416 707.513 768.941 714.174 766.556 718.942 765.111 724.808 763.347 732.581 762.451 742.97 762.378 758.055 762.263 758.459 762.349 765.005 766.961L771.68 771.659C789.033 765.992 800.086 763.39 807.441 762.219 814.795 761.048 827.958 760.094 836.7 760.094 845.441 760.094 857.636 760.803 863.791 761.67 869.947 762.537 884.742 765.501 896.663 768.233 912.469 771.876 923.422 773.466 937.119 774.131 947.45 774.637 957.044 774.608 958.431 774.073 960.584 773.249 959.674 771.529 952.406 762.624 947.696 756.856 936.483 744.988 927.482 736.227 918.48 727.481 906.56 717.304 900.997 713.604 895.434 709.903 884.049 703.571 875.712 699.552 867.375 695.519 855.021 690.648 848.259 688.71 841.497 686.788 831.108 684.229 825.141 683.029 819.188 681.844 810.721 680.441 806.328 679.935 798.627 679.054 797.948 679.27 786.1 686.383ZM1070.25 687.091C1070.77 689.476 1071.68 692.729 1072.29 694.319 1072.9 695.909 1073.83 702.733 1074.38 709.498 1075.08 718.128 1074.69 725.978 1073.07 735.88 1071.81 743.629 1069.15 753.878 1067.16 758.649L1063.55 767.323C1068.59 769.404 1075.25 771.905 1081.61 774.232 1087.97 776.56 1095.77 780.087 1098.95 782.082 1102.12 784.077 1107.64 788.168 1111.23 791.175 1114.81 794.182 1120.65 800.282 1124.23 804.749 1127.82 809.216 1133.13 817.427 1136.05 822.993 1138.97 828.544 1143.41 838.62 1145.91 845.385 1148.4 852.15 1152.02 864.178 1153.94 872.129 1155.85 880.08 1158.74 894.391 1160.37 903.932 1162.81 918.374 1164.43 923.462 1169.95 934.29 1173.6 941.446 1179.76 951.854 1183.6 957.42 1187.46 962.985 1194.28 971.442 1198.74 976.213 1206.06 984.019 1207 984.597 1208.02 981.995 1208.64 980.405 1209.97 967.727 1210.97 953.806 1212.01 939.075 1212.38 920.051 1211.85 908.269 1211.34 897.138 1209.99 881.858 1208.82 874.297 1207.66 866.737 1205.04 854.868 1203.04 847.915 1201.01 840.962 1197.24 829.903 1194.64 823.34 1192.04 816.777 1187.56 807.178 1184.69 802.017 1181.82 796.856 1176.12 788.385 1172.03 783.224 1167.94 778.063 1161.19 770.965 1157.06 767.467 1152.91 763.969 1145.93 759.429 1141.57 757.391 1136.33 754.934 1131.41 753.734 1127.12 753.878 1123.54 753.979 1117.7 754.485 1114.12 754.991 1109.65 755.613 1107.02 755.31 1105.75 754.023 1104.71 752.982 1103.89 750.524 1103.92 748.529 1103.93 746.549 1102.78 740.362 1101.34 734.796 1099.91 729.231 1096.4 719.805 1093.57 713.835 1090.15 706.65 1085.18 699.581 1078.85 692.874 1070.28 683.781 1069.4 683.202 1070.25 687.091ZM720.386 775.461C713.234 777.442 702.831 780.969 697.268 783.311 687.27 787.517 687.082 787.691 680.479 799.487 676.823 806.05 671.188 817.268 667.995 824.424 664.787 831.58 660.164 842.957 657.736 849.722 655.295 856.487 652.029 866.245 650.454 871.406 648.894 876.567 646.322 886.325 644.732 893.09 643.143 899.856 640.427 913.184 638.693 922.725 636.236 936.213 635.355 947.951 634.748 975.49L633.954 1010.91C639.603 1006.43 644.097 1001.25 647.579 996.538 651.075 991.811 656.133 984.322 658.834 979.913 661.536 975.49 666.622 965.703 670.134 958.142 673.659 950.582 679.67 935.953 683.513 925.616 687.747 914.196 691.98 899.162 694.277 887.308 696.358 876.567 699.725 861.937 701.762 854.782 703.799 847.626 708.279 835.917 711.717 828.761 715.315 821.287 721.629 811.442 726.556 805.631 731.266 800.065 738.968 792.563 743.649 788.949 748.345 785.335 753.966 781.272 756.147 779.914 758.329 778.555 760.121 776.791 760.121 775.996 760.121 775.201 758.011 773.885 755.425 773.076 752.839 772.266 746.828 771.674 742.06 771.746 737.292 771.818 727.539 773.481 720.386 775.461ZM1025.26 782.819C1027.64 783.137 1032.19 783.137 1035.37 782.834 1038.55 782.516 1036.6 782.255 1031.04 782.255 1025.47 782.241 1022.87 782.501 1025.26 782.819ZM934.23 792.967C939.792 793.242 948.245 793.242 953.013 792.967 957.781 792.678 953.23 792.461 942.899 792.461 932.568 792.461 928.667 792.693 934.23 792.967ZM756.494 801.034C751.726 804.474 745.008 810.488 741.554 814.406 738.101 818.323 734.648 822.834 733.896 824.424 733.13 826.014 734.012 825.364 735.832 822.978 737.667 820.593 741.178 816.169 743.635 813.148 746.091 810.127 752.131 804.923 757.058 801.583 761.97 798.244 765.987 795.353 765.958 795.15 765.929 794.948 765.727 794.789 765.525 794.789 765.308 794.789 761.248 797.608 756.494 801.034ZM1104.62 810.69C1108.51 815.056 1112.67 819.625 1113.87 820.81 1115.07 821.995 1114.06 820.376 1111.6 817.196 1109.16 814.015 1105 809.462 1102.37 807.076 1099.58 804.561 1100.54 806.079 1104.62 810.69ZM1140.34 895.259C1140.28 896.849 1141.14 902.053 1142.21 906.824 1143.29 911.594 1144.2 914.196 1144.24 912.606 1144.3 911.016 1143.45 905.812 1142.38 901.041 1141.3 896.271 1140.39 893.668 1140.34 895.259ZM1147.67 942.241C1147.62 945.031 1148.43 955.439 1149.46 965.371 1150.57 976.039 1151.35 980.188 1151.37 975.49 1151.4 971.124 1150.59 960.701 1149.59 952.36 1148.58 944.019 1147.71 939.451 1147.67 942.241ZM1166.15 952.721C1166.16 953.719 1167.16 965.587 1168.37 979.104 1169.6 992.62 1170.94 1023.53 1171.39 1047.77 1171.83 1072.01 1172.62 1093.73 1173.14 1096.02L1174.08 1100.17C1184.97 1084.81 1187.14 1079.47 1191.43 1063.67 1194.37 1052.93 1198.64 1034.89 1200.96 1023.56 1203.25 1012.22 1205.13 1001.5 1205.1 999.704 1205.07 997.651 1201.98 993.516 1196.68 988.5 1192.07 984.135 1185.67 977.297 1182.46 973.322 1179.25 969.346 1174.73 962.682 1172.4 958.504 1170.09 954.326 1167.72 950.914 1167.16 950.914 1166.6 950.914 1166.15 951.724 1166.15 952.721ZM676.39 968.479C672.156 976.704 665.409 988.327 661.392 994.283 657.361 1000.25 649.963 1009.36 644.949 1014.52 637.811 1021.86 635.832 1024.86 635.861 1028.25 635.875 1030.64 637.075 1040.4 638.519 1049.94 639.964 1059.48 641.51 1067.94 641.944 1068.73 642.392 1069.53 645.585 1071.12 649.053 1072.27 653.387 1073.7 658.43 1077.45 665.12 1084.2L674.873 1094.03C675.884 1082.26 676.91 1066.17 677.806 1050.66 678.702 1035.15 680.753 1007.24 682.386 988.602 684.004 969.982 685.059 954.456 684.712 954.124 684.366 953.777 680.623 960.239 676.39 968.479ZM697.572 997.897C697.023 1003.46 696.661 1011.92 696.763 1016.69 696.893 1022.63 697.341 1020.14 698.193 1008.74 698.872 999.602 699.234 991.131 699.002 989.946 698.771 988.76 698.121 992.331 697.572 997.897ZM1153.66 1022.47C1153.66 1030.42 1153.91 1033.34 1154.2 1028.98 1154.49 1024.61 1154.49 1018.11 1154.18 1014.52 1153.9 1010.94 1153.65 1014.52 1153.66 1022.47ZM1155.77 1150.41C1156.14 1212.03 1156.67 1262.78 1156.99 1263.17 1157.29 1263.56 1157.44 1229.41 1157.31 1187.27 1157.18 1145.13 1156.63 1094.39 1156.09 1074.51 1155.56 1054.64 1155.41 1088.8 1155.77 1150.41ZM694.133 1061.5C694.133 1067.07 694.393 1069.02 694.711 1065.84 695.014 1062.66 695.014 1058.11 694.697 1055.72 694.379 1053.34 694.119 1055.94 694.133 1061.5ZM692.717 1091.14C692.717 1097.9 692.963 1100.51 693.266 1096.92 693.57 1093.34 693.57 1087.81 693.266 1084.63 692.963 1081.45 692.717 1084.37 692.717 1091.14ZM1193.3 1098.01C1189.74 1101.78 1185.44 1107.63 1183.72 1111.02 1181.98 1114.4 1180.6 1117.65 1180.61 1118.24 1180.63 1118.84 1182.61 1115.74 1185 1111.38 1187.42 1107.01 1192.08 1100.66 1195.39 1097.28 1198.69 1093.9 1201.03 1091.14 1200.57 1091.14 1200.12 1091.14 1196.85 1094.23 1193.3 1098.01ZM605.403 1097.54C602.686 1100.26 599.291 1104.65 597.875 1107.3 595.375 1111.91 595.375 1111.95 597.875 1108.49 599.291 1106.51 602.961 1102.11 606.024 1098.73 609.087 1095.35 611.312 1092.58 610.965 1092.58 610.619 1092.58 608.119 1094.81 605.403 1097.54ZM1241.8 1099.81C1245.59 1104.18 1249.95 1111.02 1251.53 1114.99 1253.12 1119.02 1253.98 1120.31 1253.51 1117.88 1253.01 1115.5 1251.11 1110.94 1249.24 1107.76 1247.38 1104.58 1243.39 1099.71 1240.39 1096.92 1235.72 1092.6 1235.94 1093.03 1241.8 1099.81ZM691.243 1123.66C691.243 1129.23 691.503 1131.18 691.821 1128 692.125 1124.82 692.125 1120.27 691.807 1117.88 691.489 1115.5 691.229 1118.1 691.243 1123.66ZM1258.24 1151.85C1258.66 1160.19 1259.26 1167.37 1259.57 1167.76 1259.88 1168.15 1260.07 1164.26 1259.98 1159.08 1259.91 1153.91 1259.31 1146.77 1258.66 1143.18 1257.9 1138.93 1257.75 1141.95 1258.24 1151.85ZM1172.25 1169.56C1172.06 1185.26 1172.4 1198.43 1173 1198.81 1173.59 1199.2 1175.38 1198.06 1176.97 1196.28L1179.86 1193.05 1173.31 1198.84 1172.58 1141.01ZM648.937 1151.36C647.781 1151.77 646.958 1152.85 647.102 1153.78 647.304 1155.02 647.839 1154.99 649.125 1153.66 650.093 1152.66 651.986 1151.85 653.344 1151.85 654.861 1151.85 656.364 1153.66 657.259 1156.55 658.069 1159.14 658.777 1160.11 658.849 1158.72 658.921 1157.33 658.329 1154.89 657.534 1153.3 656.739 1151.71 654.948 1150.47 653.561 1150.52 652.173 1150.58 650.093 1150.96 648.937 1151.36ZM1195.81 1153.66C1195.49 1154.66 1194.14 1159.37 1192.81 1164.14 1191.48 1168.91 1188.83 1175.91 1186.93 1179.68 1185.03 1183.45 1183.79 1186.55 1184.19 1186.55 1184.58 1186.55 1186.54 1183.3 1188.53 1179.32 1190.51 1175.34 1193.34 1167.54 1194.81 1161.97 1196.29 1156.41 1197.26 1151.85 1196.95 1151.85 1196.65 1151.85 1196.13 1152.66 1195.81 1153.66ZM1204.86 1155.99C1205.1 1158.08 1204.31 1163.06 1203.11 1167.03 1201.91 1171.01 1201.2 1174.59 1201.53 1174.98 1201.85 1175.37 1203.14 1172.12 1204.37 1167.76 1205.61 1163.39 1206.68 1158.37 1206.75 1156.64 1206.82 1154.89 1206.33 1153.17 1205.65 1152.82 1204.97 1152.46 1204.61 1153.88 1204.86 1155.99ZM1197.13 1182.54C1195.58 1185.93 1192.1 1191.62 1189.41 1195.21 1185.39 1200.56 1185.21 1201.08 1188.36 1198.11 1190.48 1196.12 1194.15 1190.76 1196.5 1186.19 1198.87 1181.62 1200.61 1177.54 1200.38 1177.14 1200.13 1176.73 1198.67 1179.16 1197.13 1182.54ZM675.436 1217.63C675.436 1227.97 675.667 1231.87 675.942 1226.3 676.216 1220.74 676.216 1212.28 675.942 1207.51 675.653 1202.74 675.422 1207.29 675.436 1217.63ZM691.315 1215.46C691.315 1224.61 691.547 1228.18 691.836 1223.41 692.125 1218.64 692.125 1211.15 691.836 1206.79 691.547 1202.42 691.315 1206.31 691.315 1215.46ZM1173.36 1209.97C1171.73 1211.37 1171.39 1217.51 1171.62 1241.77 1171.78 1258.31 1172.4 1272.1 1173 1272.43 1173.59 1272.75 1173.92 1259.25 1173.72 1242.44 1173.49 1222.41 1173.91 1211.22 1174.9 1210.04 1175.76 1209.04 1176.2 1208.23 1175.92 1208.23 1175.61 1208.23 1174.47 1209.01 1173.36 1209.97ZM1248.61 1213.55C1247.54 1216.59 1245.11 1222.17 1243.23 1225.94 1241.35 1229.71 1240.14 1232.81 1240.55 1232.81 1240.94 1232.81 1242.65 1230.05 1244.36 1226.66 1246.05 1223.28 1248.19 1217.98 1249.11 1214.87 1250.02 1211.77 1250.72 1208.96 1250.67 1208.64 1250.62 1208.3 1249.69 1210.52 1248.61 1213.55ZM692.717 1251.6C692.717 1258.35 692.963 1260.97 693.266 1257.38 693.57 1253.8 693.57 1248.28 693.266 1245.1 692.963 1241.92 692.717 1244.85 692.717 1251.6ZM676.043 1256.66C675.797 1265.02 676.086 1271.84 676.679 1271.84 677.271 1271.84 677.762 1265 677.762 1256.66 677.762 1248.32 677.473 1241.48 677.127 1241.48 676.78 1241.48 676.289 1248.32 676.043 1256.66ZM718.176 1373.39C718.205 1373.99 720.17 1378.38 722.554 1383.15 724.938 1387.92 727.207 1391.82 727.611 1391.82 728.001 1391.82 726.296 1387.76 723.825 1382.79 721.34 1377.82 719.057 1373.42 718.725 1373.03 718.407 1372.64 718.147 1372.8 718.176 1373.39ZM778.182 1459.57C784.539 1466.16 792.992 1474.22 796.966 1477.48 800.939 1480.74 803.207 1482.44 802.023 1481.25 800.823 1480.05 792.371 1471.98 783.239 1463.32 769.325 1450.14 768.501 1449.53 778.182 1459.57ZM1066.41 1469.53 1052.71 1483.62C1074.56 1462.33 1080.9 1455.99 1080.89 1455.79 1080.89 1455.59 1080.71 1455.43 1080.5 1455.43 1080.28 1455.43 1073.94 1461.78 1066.41 1469.53ZM783.239 1486.31C786.013 1489.35 790.897 1493.83 794.076 1496.28 797.255 1498.74 798.873 1499.77 797.688 1498.57 796.489 1497.37 791.619 1492.89 786.851 1488.59 781.173 1483.49 779.93 1482.71 783.239 1486.31ZM1048.75 1522.29C1048.97 1530.44 1049.33 1540.36 1049.57 1544.34 1049.81 1548.31 1050.12 1541.65 1050.27 1529.52 1050.41 1517.39 1050.05 1507.47 1049.46 1507.47 1048.87 1507.47 1048.55 1514.14 1048.75 1522.29ZM999.972 1517.59C994.004 1520.7 989.627 1523.26 990.219 1523.3 990.811 1523.35 995.854 1521.09 1001.42 1518.32 1006.98 1515.54 1011.53 1512.92 1011.53 1512.53 1011.53 1512.14 1011.37 1511.84 1011.17 1511.88 1010.97 1511.93 1005.92 1514.48 999.972 1517.59ZM1010.09 1531.33C1004.91 1534.03 1001.19 1536.27 1001.78 1536.31 1002.37 1536.36 1006.76 1534.43 1011.53 1532.05 1016.3 1529.66 1020.2 1527.38 1020.2 1526.99 1020.2 1526.6 1020.04 1526.3 1019.84 1526.34 1019.64 1526.38 1015.24 1528.62 1010.09 1531.33ZM923.393 1551.91C927.756 1552.2 934.258 1552.2 937.842 1551.9 941.411 1551.61 937.842 1551.36 929.895 1551.38 921.948 1551.38 919.015 1551.62 923.393 1551.91ZM1051.08 1566.74C1051.08 1575.08 1051.31 1578.34 1051.6 1573.97 1051.9 1569.61 1051.9 1562.77 1051.6 1558.79 1051.31 1554.82 1051.08 1558.4 1051.08 1566.74ZM1076.51 1634.28C1079.28 1635.71 1082.98 1639.43 1084.79 1642.64 1086.59 1645.82 1088.07 1647.93 1088.08 1647.34 1088.1 1646.74 1087.2 1644.46 1086.09 1642.28 1084.97 1640.09 1082.86 1637.25 1081.39 1635.94 1079.92 1634.64 1077.09 1633.17 1075.11 1632.65 1072.58 1632 1073.01 1632.49 1076.51 1634.28ZM1093.34 1664.32C1093.82 1666.71 1095.1 1673.21 1096.2 1678.78 1098.11 1688.46 1098.17 1688.55 1097.52 1680.95 1097.13 1676.58 1095.84 1670.07 1094.66 1666.49 1093.46 1662.9 1092.88 1661.94 1093.34 1664.32ZM743.722 1704.81C747.825 1709.57 756.928 1719.02 763.95 1725.82 770.986 1732.61 779.656 1740.32 783.239 1742.93L789.741 1747.69C779.656 1739.25 767.634 1727.65 756.509 1716.48 745.383 1705.29 739.632 1700.04 743.722 1704.81ZM1096.45 1716.36C1095.87 1720.34 1095.07 1725.21 1094.66 1727.21 1094.25 1729.19 1094.9 1727.9 1096.11 1724.31 1097.31 1720.73 1098.12 1715.86 1097.89 1713.47 1097.57 1710.12 1097.24 1710.78 1096.45 1716.36ZM1091.36 1736.14C1090.41 1738.78 1087.01 1745 1083.82 1749.97 1080.61 1754.95 1075.57 1761.77 1072.62 1765.15 1068.92 1769.37 1068.52 1770.17 1071.32 1767.68 1073.57 1765.69 1078.23 1760.17 1081.67 1755.39 1085.09 1750.62 1089.25 1743.63 1090.9 1739.85 1092.55 1736.08 1093.7 1732.61 1093.48 1732.16 1093.25 1731.72 1092.3 1733.51 1091.36 1736.14ZM1055.53 1779.23C1054.78 1780.01 1048.62 1783.57 1041.87 1787.14 1035.11 1790.7 1030.08 1793.63 1030.68 1793.66 1031.27 1793.69 1036.15 1791.51 1041.51 1788.8 1046.87 1786.11 1052.88 1782.56 1054.88 1780.91 1056.86 1779.25 1058.13 1777.87 1057.69 1777.84 1057.26 1777.82 1056.28 1778.44 1055.53 1779.23ZM950.123 1807.78C954.097 1808.07 960.917 1808.07 965.295 1807.78 969.658 1807.49 966.407 1807.25 958.07 1807.25 949.719 1807.25 946.15 1807.49 950.123 1807.78Z" fill="#925132" fill-rule="evenodd"/><path d="M813.277 780.874C808.505 781.626 799.888 783.548 794.119 785.137 788.351 786.727 780.225 789.531 776.046 791.366 771.868 793.187 763.959 797.912 758.451 801.843 752.942 805.774 745.901 811.901 742.778 815.485 739.669 819.068 734.941 825.571 732.281 829.936 729.606 834.3 725.702 842.436 723.606 847.999 721.495 853.563 718.155 865.268 716.189 874.011 714.222 882.754 711.374 897.061 709.885 905.803 708.396 914.546 705.851 933.405 704.261 947.711 702.656 962.018 700.675 982.177 699.851 992.509 699.027 1002.84 697.407 1026.9 696.236 1045.98 695.065 1065.05 693.691 1092.37 693.171 1106.67 692.506 1124.94 691.638 1133.65 690.222 1135.94 688.862 1138.13 686.809 1139.19 683.874 1139.19 680.751 1139.19 678.799 1138.07 676.891 1135.21 675.445 1133.03 673.378 1128.97 672.307 1126.18 671.238 1123.39 668.606 1117.54 666.466 1113.18 664.312 1108.81 660.683 1103.03 658.399 1100.33 656.1 1097.64 651.141 1093.9 647.367 1092.02 642.552 1089.62 637.81 1088.57 631.463 1088.45 625.115 1088.33 620.706 1089.13 616.643 1091.14 613.462 1092.71 608.055 1097.18 604.628 1101.05 601.201 1104.94 597.153 1110.72 595.62 1113.9 594.074 1117.08 591.731 1124.55 590.401 1130.52 588.811 1137.58 587.972 1147.66 588.001 1159.42 588.015 1171.89 588.926 1181.73 590.936 1191.21 592.526 1198.77 596.358 1210.79 599.452 1217.95 602.531 1225.1 607.607 1234.85 610.729 1239.62 613.838 1244.39 619.708 1251.43 623.742 1255.27 627.79 1259.1 635.005 1264.1 639.776 1266.39 644.548 1268.65 652.023 1271.11 656.403 1271.83 660.784 1272.54 666.958 1272.73 670.139 1272.24L675.922 1271.34C674.983 1204.93 674.635 1200.43 672.525 1199.23 671.209 1198.48 667.536 1195.47 664.356 1192.57 661.175 1189.65 656.331 1182.79 653.599 1177.32 650.292 1170.69 648.485 1164.84 648.177 1159.78 647.743 1152.54 647.917 1152.15 651.704 1151.28 654.668 1150.6 656.143 1151.07 657.517 1153.09 658.514 1154.58 659.339 1157.42 659.324 1159.42 659.31 1161.4 661.16 1166.93 663.445 1171.7 665.729 1176.47 669.271 1181.99 671.325 1183.99 674.852 1187.41 675.17 1187.47 677.397 1185.07 678.684 1183.68 681.156 1182.53 682.891 1182.5 684.626 1182.47 687.185 1183.61 688.573 1185.03 690.771 1187.25 691.306 1192.44 692.535 1223.73 693.316 1243.6 694.646 1267.32 695.499 1276.47 696.366 1285.62 698.709 1301.21 700.733 1311.15 702.742 1321.08 706.646 1336.69 709.393 1345.84 712.126 1354.98 718.531 1370.91 723.606 1381.24 728.681 1391.57 736.532 1405.56 741.043 1412.31 745.554 1419.06 753.983 1430.45 759.781 1437.6 765.578 1444.75 776.74 1456.81 784.577 1464.39 792.413 1471.97 804.023 1482.11 810.385 1486.94 816.747 1491.76 826.839 1498.86 832.796 1502.7 838.767 1506.55 850.796 1513.08 859.543 1517.23 868.291 1521.36 881.303 1526.46 888.46 1528.54 895.617 1530.62 907.646 1533.02 915.208 1533.87 925.098 1534.99 933.194 1534.96 944.125 1533.8 952.467 1532.92 964.511 1530.85 970.873 1529.22 977.234 1527.59 990.898 1522.07 1001.24 1516.97 1011.57 1511.88 1026.16 1503.31 1033.65 1497.93 1041.14 1492.57 1054.08 1481.68 1062.41 1473.73 1070.74 1465.78 1082.52 1453.11 1088.59 1445.55 1094.67 1437.99 1103.48 1425.65 1108.18 1418.09 1112.88 1410.53 1120.78 1395.58 1125.72 1384.85 1130.67 1374.13 1137.07 1357.54 1139.95 1348 1142.83 1338.47 1146.73 1323.19 1148.64 1314.04 1150.55 1304.9 1153.24 1288.64 1154.6 1277.92 1156.82 1260.4 1156.98 1247.66 1156.16 1152.92 1155.64 1094.9 1154.58 1034.75 1153.79 1019.24 1152.99 1003.74 1151.34 980.009 1150.13 966.498 1148.9 952.986 1146.98 935.096 1145.83 926.757 1144.69 918.419 1142.09 903.13 1140.04 892.797 1138 882.465 1134.66 868.491 1132.63 861.728 1130.61 854.965 1125.91 843.274 1122.19 835.745 1117.05 825.254 1113.07 819.617 1105.34 811.742 1097.61 803.895 1092.29 800.022 1082.93 795.412 1074.92 791.481 1065.6 788.331 1056.18 786.395 1044.76 784.025 1038.52 783.562 1026.54 784.169 1018.19 784.588 1001.26 786.756 988.946 788.982 969.976 792.421 962.762 793.028 941.956 792.984 924.404 792.941 914.283 792.233 906.533 790.499 900.562 789.169 888.2 786.424 879.062 784.415 867.279 781.828 856.536 780.585 842.193 780.137 831.06 779.791 818.048 780.123 813.277 780.874ZM1207.99 1089.49C1204.81 1090.65 1199.45 1094.35 1196.06 1097.7 1192.68 1101.04 1188.17 1107.03 1186.06 1111.01 1183.93 1114.98 1180.35 1123.75 1178.09 1130.52 1174.13 1142.38 1173.98 1143.77 1174.06 1170.98L1174.13 1199.16C1181 1191.33 1185.2 1184.49 1187.89 1178.93 1190.6 1173.36 1193.62 1165.33 1194.62 1161.05 1195.69 1156.49 1197.46 1152.77 1198.95 1152.02 1200.47 1151.25 1202.64 1151.33 1204.38 1152.19 1206.11 1153.06 1207.27 1155.08 1207.27 1157.25 1207.27 1159.23 1205.91 1164.92 1204.25 1169.9 1202.6 1174.87 1199.18 1182.77 1196.65 1187.47 1193.89 1192.63 1188.53 1199.2 1183.09 1204.09L1174.09 1212.17 1174.74 1272.86C1194.76 1272.76 1197.97 1272.02 1206.54 1267.97 1213.7 1264.61 1219.21 1260.56 1225.34 1254.17 1230.81 1248.48 1236.49 1240.37 1240.71 1232.27 1244.4 1225.19 1248.73 1215.49 1250.34 1210.72 1251.96 1205.95 1254.34 1196.85 1255.64 1190.49 1256.95 1184.13 1258.38 1173.07 1258.81 1165.92 1259.32 1157.61 1258.8 1147.7 1257.39 1138.46 1256.18 1130.52 1253.72 1120.11 1251.91 1115.34 1249.72 1109.48 1246.29 1104.26 1241.33 1099.22 1235.75 1093.54 1232.12 1091.22 1226.06 1089.45 1221.7 1088.18 1217.14 1087.19 1215.94 1087.25 1214.74 1087.31 1211.17 1088.32 1207.99 1089.49ZM761.385 1471.56C760.981 1475.14 759.593 1490.42 758.306 1505.52 757.019 1520.62 754.663 1539.48 753.087 1547.43 751.51 1555.38 747.852 1567.41 744.975 1574.16 742.084 1580.91 737.819 1589.7 735.491 1593.67 733.148 1597.65 727.914 1605.06 723.823 1610.13 719.746 1615.22 712.328 1622.37 707.34 1626.03 702.352 1629.7 698.289 1633.18 698.304 1633.77 698.318 1634.37 700.733 1639.25 703.668 1644.61 706.617 1649.97 712.56 1659.9 716.897 1666.65 721.22 1673.4 728.71 1684.13 733.524 1690.49 738.339 1696.85 750.123 1709.92 759.708 1719.53 769.294 1729.14 782.654 1741.25 789.42 1746.46 796.172 1751.66 807.233 1759.28 814 1763.38 820.752 1767.49 833.446 1774.32 842.193 1778.57 850.941 1782.81 867.206 1789.24 878.339 1792.85 889.472 1796.48 906.388 1800.91 915.931 1802.71 929.782 1805.32 938.385 1805.99 958.583 1806 977.278 1806 987.283 1805.32 996.898 1803.38 1004.05 1801.95 1014.46 1799.14 1020.03 1797.13 1025.6 1795.13 1035.68 1790.67 1042.44 1787.2 1049.19 1783.73 1059.23 1777.14 1064.72 1772.55 1070.22 1767.95 1077.49 1760.29 1080.89 1755.52 1084.28 1750.75 1088.64 1743.27 1090.57 1738.9 1092.5 1734.54 1094.98 1727.37 1096.08 1723.01 1097.27 1718.35 1098.05 1708.18 1097.99 1698.44 1097.93 1688.05 1096.96 1678.04 1095.43 1671.71 1094.07 1666.14 1091.22 1657.04 1089.08 1651.48 1086.94 1645.91 1083.86 1639.94 1082.26 1638.22 1080.64 1636.5 1078.01 1634.73 1076.42 1634.26 1073.77 1633.51 1073.57 1634.05 1073.95 1640.29 1074.21 1644.5 1073.66 1647.86 1072.5 1649 1071.47 1650.04 1069 1650.84 1067.02 1650.8 1065.03 1650.75 1062.57 1650.23 1061.54 1649.64 1060.53 1649.06 1058.75 1644.68 1057.61 1639.91 1056.47 1635.15 1054.86 1623.44 1054.05 1613.9 1053.23 1604.37 1051.91 1583.89 1051.13 1568.38 1050.34 1552.88 1049.69 1533.21 1049.69 1524.67 1049.67 1516.13 1049.18 1509.29 1048.59 1509.49 1047.99 1509.7 1040.66 1514.38 1032.32 1519.88 1023.98 1525.38 1011.93 1532.28 1005.57 1535.23 999.211 1538.17 988.801 1542.23 982.439 1544.23 976.078 1546.26 963.383 1549.02 954.246 1550.38 942.231 1552.17 933.411 1552.6 922.437 1551.94 914.095 1551.45 901.719 1549.78 894.966 1548.27 888.2 1546.75 877.79 1543.74 871.833 1541.59 865.862 1539.44 855.134 1534.75 847.977 1531.17 840.82 1527.6 829.427 1521.1 822.674 1516.71 815.908 1512.33 806.481 1505.81 801.71 1502.23 796.939 1498.64 786.08 1488.81 777.579 1480.38L762.123 1465.06Z" fill="#FAC39A" fill-rule="evenodd"/><path d="M816.264 950.558C810.706 951.671 802.579 953.841 798.219 955.389 793.86 956.937 787.364 959.671 783.784 961.48 780.204 963.273 773.39 967.512 768.626 970.883 763.863 974.253 755.735 981.544 750.582 987.099 745.428 992.655 739.178 1001.04 736.695 1005.75 734.212 1010.46 731.787 1016.58 731.296 1019.37 730.632 1023.12 731.051 1025.1 732.913 1027.01 734.299 1028.43 736.233 1029.57 737.229 1029.54 738.225 1029.51 744.071 1027.3 750.221 1024.63 756.37 1021.95 768.713 1017.39 777.649 1014.5 786.584 1011.61 799.894 1008.32 807.241 1007.18 814.589 1006.05 830.006 1004.88 841.526 1004.57 859.181 1004.11 863.251 1003.58 867.51 1001.13 870.296 999.54 874.049 995.996 875.854 993.248 878.38 989.429 879.131 986.26 879.087 979.591 879.058 974.818 878.423 968.641 877.658 965.848 876.893 963.056 874.468 959.035 872.259 956.894 870.036 954.767 866.283 952.264 863.901 951.339 861.519 950.427 852.093 949.429 842.969 949.111 832.359 948.749 822.716 949.284 816.264 950.558ZM1017.64 949.834C1013.28 950.384 1007.49 952.091 1004.79 953.639 1002.11 955.187 998.527 958.282 996.853 960.525 994.312 963.939 993.821 966.658 993.821 977.161 993.821 987.823 994.312 990.427 997.069 994.419 998.859 997.009 1002.42 1000.19 1005.01 1001.49 1008.49 1003.26 1016.25 1004.17 1034.96 1005.04 1048.86 1005.69 1063.8 1006.83 1068.16 1007.58 1072.52 1008.34 1081.14 1010.65 1087.29 1012.72 1093.44 1014.79 1105.31 1019.74 1113.64 1023.71 1121.97 1027.69 1129.6 1030.96 1130.6 1030.99 1131.59 1031.02 1133.57 1029.88 1135.02 1028.46 1137.02 1026.48 1137.4 1024.71 1136.63 1020.82 1136.08 1018.03 1134.22 1012.84 1132.49 1009.25 1130.77 1005.66 1127.68 1000.13 1125.65 996.951 1123.6 993.768 1119.09 987.968 1115.61 984.061 1112.15 980.17 1105.73 974.239 1101.37 970.883 1097.01 967.541 1090.18 963.158 1086.21 961.147 1082.24 959.136 1074.78 956.185 1069.61 954.579 1064.44 952.973 1056.05 951.266 1050.94 950.789 1045.83 950.326 1038.04 949.69 1033.62 949.386 1029.2 949.082 1022 949.284 1017.64 949.834ZM808.324 1041.88C803.171 1043 794.711 1046.02 789.558 1048.6 783.582 1051.58 776.638 1056.84 770.431 1063.09 763.487 1070.08 759.128 1076.13 755.273 1084.11 749.875 1095.31 749.86 1095.35 749.86 1114.13 749.86 1132.11 750.048 1133.34 754.292 1142.34 756.948 1147.99 762.419 1155.69 768.006 1161.65 774.819 1168.91 779.987 1172.85 787.393 1176.42 792.95 1179.1 802.536 1182.29 808.685 1183.51 814.835 1184.74 821.821 1185.74 824.203 1185.74 826.585 1185.74 833.572 1184.71 839.721 1183.45 845.871 1182.19 855.052 1179.11 860.104 1176.58 865.59 1173.86 872.404 1168.77 876.922 1164.04 881.108 1159.67 886.55 1151.86 889.033 1146.68 891.502 1141.51 894.49 1131.91 895.674 1125.34 897.579 1114.75 897.579 1112.02 895.659 1101.11 894.475 1094.34 892.094 1085.07 890.376 1080.49 888.081 1074.36 884.775 1069.67 877.745 1062.61 872.028 1056.87 864.637 1051.24 859.209 1048.51 854.244 1046.01 846.131 1043 841.165 1041.81 836.199 1040.64 828.895 1039.71 824.925 1039.76 820.955 1039.81 813.478 1040.77 808.324 1041.88ZM1027.02 1042.42C1021.47 1043.87 1013.51 1046.76 1009.34 1048.86 1005.17 1050.94 999.393 1054.76 996.506 1057.35 993.604 1059.94 988.263 1066.29 984.626 1071.45 980.988 1076.62 976.816 1084.11 975.358 1088.09 973.886 1092.07 972.312 1100.2 971.865 1106.17 971.359 1112.8 971.735 1120.12 972.846 1124.98 973.857 1129.35 976.672 1137.17 979.126 1142.34 981.883 1148.17 987.181 1155.5 993.027 1161.64 999.826 1168.75 1005.51 1173.05 1013.31 1176.96 1020.9 1180.76 1027.8 1182.94 1036.41 1184.25 1047.17 1185.9 1050.18 1185.82 1060.95 1183.65 1067.69 1182.29 1077.27 1179.27 1082.24 1176.94 1087.25 1174.6 1094.31 1169.64 1098.12 1165.79 1101.89 1161.98 1107.34 1154.33 1110.23 1148.79 1113.12 1143.25 1116.21 1135.31 1117.09 1131.13 1117.97 1126.95 1118.69 1119.78 1118.69 1115.21 1118.69 1110.64 1117.35 1102.01 1115.7 1096.05 1114.05 1090.07 1110.63 1081.36 1108.12 1076.66 1105.57 1071.93 1099.66 1064.54 1094.83 1060.02 1090.03 1055.57 1082.56 1050.17 1078.23 1048.05 1073.88 1045.91 1066.11 1043.16 1060.95 1041.91 1055.78 1040.68 1048.32 1039.7 1044.35 1039.73 1040.38 1039.76 1032.58 1040.97 1027.02 1042.42ZM951.308 1144.74C950.154 1145.14 949.36 1146.88 949.547 1148.6 949.721 1150.32 952.579 1155.33 955.899 1159.7 959.219 1164.07 965.08 1172.86 968.905 1179.23 972.745 1185.59 977.927 1196.01 980.41 1202.37 983.63 1210.59 984.972 1216.49 985.059 1222.73 985.145 1230.16 984.539 1232.35 981.19 1236.83 978.274 1240.74 975.199 1242.79 969.641 1244.53 963.853 1246.34 958.642 1246.73 947.627 1246.15 937.97 1245.64 930.088 1244.31 923.809 1242.1 918.655 1240.29 913.285 1239.23 911.899 1239.75 910.427 1240.32 909.373 1242.21 909.373 1244.33 909.373 1246.83 910.6 1248.55 913.343 1249.92 915.523 1251.02 921.86 1253.11 927.418 1254.57 934.087 1256.32 942.69 1257.23 952.68 1257.24 965.773 1257.27 968.891 1256.78 975.632 1253.68 979.92 1251.72 985.607 1247.67 988.263 1244.69 990.919 1241.71 993.749 1236.82 994.528 1233.84 995.323 1230.86 995.972 1225.81 995.986 1222.63 996.001 1219.44 995.005 1212.93 993.778 1208.16 992.565 1203.39 988.393 1192.97 984.51 1185.01 980.641 1177.06 973.193 1164.53 967.967 1157.17 961.933 1148.67 957.53 1143.83 955.928 1143.9 954.542 1143.96 952.463 1144.33 951.308 1144.74ZM824.362 1307.98C823.481 1309.18 822.919 1311.29 823.121 1312.68 823.337 1314.15 827.105 1317 832.244 1319.55 837.051 1321.94 848.094 1326.29 856.784 1329.23 865.46 1332.18 879.058 1335.88 886.998 1337.49 894.938 1339.09 910.196 1341.15 920.921 1342.05 931.69 1342.96 947.18 1343.28 955.567 1342.74 963.896 1342.22 976.888 1340.89 984.438 1339.79 991.988 1338.7 1004.32 1335.77 1011.87 1333.28 1019.42 1330.81 1030.01 1326.36 1035.44 1323.44 1041.24 1320.3 1045.62 1316.92 1046.08 1315.21 1046.51 1313.62 1046.45 1311.51 1045.96 1310.51 1045.47 1309.51 1043.77 1308.7 1042.18 1308.7 1040.59 1308.7 1036.85 1310.35 1033.88 1312.36 1030.91 1314.37 1022.95 1318 1016.2 1320.42 1009.44 1322.85 1000.03 1325.71 995.265 1326.81 990.501 1327.91 979.775 1329.5 971.446 1330.34 963.117 1331.18 949.143 1331.86 940.409 1331.86 931.676 1331.86 916.735 1330.88 907.208 1329.69 897.68 1328.51 884.371 1326.15 877.615 1324.44 870.859 1322.75 859.83 1319.25 853.074 1316.67 846.319 1314.1 838.047 1310.6 834.669 1308.9 831.291 1307.2 827.956 1305.81 827.249 1305.81 826.542 1305.81 825.243 1306.78 824.362 1307.98Z" fill="#010001" fill-rule="evenodd"/><path d="M1025.28 949.034 1017.34 950.059C1012.98 950.622 1007.77 951.906 1005.79 952.931 1003.8 953.956 1000.57 956.179 994.979 960.928L997.866 957.478C999.44 955.573 1003.34 952.83 1006.51 951.372 1009.69 949.914 1015.2 948.788 1025.28 949.034ZM1028.2 960.206C1036.51 960.206 1048.03 960.913 1053.79 961.779 1059.55 962.645 1068.48 965.013 1073.64 967.033 1078.81 969.054 1086.93 973.457 1091.69 976.82 1096.45 980.183 1103.32 986.101 1106.98 989.97 1110.62 993.853 1116.32 1001.24 1119.64 1006.4 1122.97 1011.55 1125.67 1016.59 1125.66 1017.58 1125.63 1018.68 1121.51 1017.16 1115.15 1013.71 1109.39 1010.6 1100.47 1006.45 1095.3 1004.51 1090.13 1002.57 1079.09 999.554 1070.76 997.822 1060.88 995.758 1047.54 994.343 1032.5 993.78 1010.08 992.914 1009.3 992.785 1005.91 989.176 1002.67 985.74 1002.52 984.846 1003.67 976.95 1004.59 970.57 1005.94 967.409 1008.98 964.32 1012.95 960.322 1013.47 960.206 1028.2 960.206ZM1124.88 994.849C1125.59 994.849 1127.92 997.938 1130.06 1001.7 1132.21 1005.47 1134.38 1010.19 1134.88 1012.17 1135.37 1014.16 1134.28 1012.86 1132.43 1009.28 1130.58 1005.7 1127.84 1001 1126.34 998.818 1124.82 996.638 1124.17 994.849 1124.88 994.849ZM839.772 1040.37C843.353 1040.79 850.325 1043.07 855.292 1045.43 860.258 1047.78 864.314 1050.03 864.314 1050.42 864.314 1050.81 861.066 1049.53 857.096 1047.53 853.126 1045.56 846.139 1042.94 841.577 1041.76 833.853 1039.74 833.738 1039.65 839.772 1040.37ZM869.367 1053.67C871.749 1055.33 876.297 1059.47 879.473 1062.89 884.367 1068.16 883.934 1067.92 876.585 1061.32 871.821 1057.03 867.274 1052.89 866.48 1052.1 865.686 1051.32 866.985 1052.02 869.367 1053.67ZM1088.8 1053.31 1096.51 1060.53C1100.76 1064.49 1106.1 1070.99 1108.41 1074.96 1110.72 1078.93 1112.59 1082.83 1112.58 1083.62 1112.58 1084.41 1110.6 1081.48 1108.2 1077.12 1105.81 1072.77 1100.45 1065.62 1096.32 1061.25ZM748.433 1107.44C748.736 1111 748.736 1117.18 748.433 1121.15 748.144 1125.12 747.898 1122.19 747.898 1114.65 747.898 1107.1 748.144 1103.86 748.433 1107.44ZM750.844 1134.14C751.84 1137.32 753.745 1142.02 755.073 1144.61 756.401 1147.19 757.152 1149.3 756.762 1149.3 756.358 1149.3 754.424 1145.89 752.446 1141.72 750.468 1137.55 748.88 1132.84 748.923 1131.25 748.981 1129.67 749.833 1130.96 750.844 1134.14ZM1115.08 1139.9C1115.31 1140.3 1113.55 1144.37 1111.15 1148.94 1108.75 1153.5 1104.49 1159.83 1101.69 1163.01 1097.25 1168.06 1097.39 1167.69 1102.81 1160.09 1106.21 1155.3 1110.28 1148.63 1111.83 1145.28 1113.37 1141.92 1114.83 1139.5 1115.08 1139.9ZM955.077 1142.38C957.069 1142.63 960.057 1144.94 965.745 1152.91L961.573 1148C958.094 1143.91 956.737 1143.25 953.445 1144.03 950.587 1144.71 949.475 1145.88 949.461 1148.21 949.446 1150 950.255 1152.4 951.265 1153.55 952.868 1155.39 952.767 1155.39 950.5 1153.55 949.086 1152.4 947.815 1150.13 947.685 1148.5 947.57 1146.87 948.393 1144.74 949.533 1143.75 950.688 1142.76 953.171 1142.15 955.077 1142.38ZM982.246 1149.3C983.646 1151.27 988.699 1157.12 1002.1 1171.67L993.478 1163.43C988.728 1158.9 983.69 1153.05 982.26 1150.44 979.85 1145.99 979.835 1145.92 982.246 1149.3ZM914.048 1237.36C915.679 1237.38 917.975 1237.98 919.173 1238.69 920.674 1239.6 919.548 1239.93 915.564 1239.76 910.237 1239.53 909.761 1239.83 909.428 1243.48 909.154 1246.53 909.977 1247.94 913.038 1249.56 915.217 1250.71 916.358 1251.69 915.564 1251.74 914.77 1251.77 912.662 1250.83 910.872 1249.63 909.082 1248.43 907.494 1245.95 907.335 1244.13 907.176 1242.3 907.956 1240.03 909.068 1239.08 910.179 1238.13 912.417 1237.36 914.048 1237.36ZM940.828 1330.3C953.128 1330.3 958.325 1330.53 952.377 1330.79 946.415 1331.07 936.352 1331.07 930 1330.79 923.648 1330.53 928.513 1330.3 940.828 1330.3ZM844.825 959.787C851.971 960.206 859.276 961.13 861.066 961.823 862.856 962.515 865.282 965.042 866.48 967.423 867.664 969.805 868.645 975.001 868.645 978.971 868.645 984.687 867.909 986.939 865.094 989.797 862.005 992.943 860.301 993.405 851.74 993.405 846.355 993.391 833.492 994.083 823.17 994.921 812.848 995.772 799.206 997.692 792.854 999.193 786.502 1000.69 776.757 1003.49 771.199 1005.41 765.641 1007.33 756.864 1010.64 751.71 1012.76 746.541 1014.88 742.182 1016.43 742.008 1016.2 741.835 1015.97 744.434 1011.59 747.783 1006.48 751.132 1001.37 758.423 993.044 763.981 987.978 769.539 982.911 778.302 976.416 783.47 973.529 788.624 970.642 797.069 966.803 802.238 965.013 807.391 963.223 816.169 961.13 821.727 960.379 827.285 959.629 837.679 959.354 844.825 959.787ZM1093.13 964.262 1098.91 968.231C1102.08 970.411 1107.17 974.525 1110.21 977.383 1113.26 980.241 1117.79 985.178 1120.27 988.353 1122.76 991.529 1119.94 989.205 1114.01 983.2 1108.09 977.195 1100.96 970.469 1098.19 968.26ZM824.614 1050.18C830.172 1050.19 832.121 1050.45 828.945 1050.75 825.769 1051.07 821.221 1051.06 818.839 1050.74 816.457 1050.42 819.056 1050.18 824.614 1050.18Z" fill="#925132" fill-rule="evenodd"/><path d="M885.071 1112.58C885.086 1118.95 885.331 1121.24 885.635 1117.65 885.938 1114.06 885.938 1108.85 885.635 1106.06 885.317 1103.26 885.071 1106.2 885.071 1112.58ZM818.112 1173.77C820.9 1174.08 825.77 1174.08 828.949 1173.77 832.128 1173.45 829.859 1173.21 823.892 1173.21 817.938 1173.21 815.337 1173.45 818.112 1173.77ZM1041.36 1173.76C1043.74 1174.08 1048.29 1174.08 1051.47 1173.77 1054.65 1173.45 1052.7 1173.19 1047.14 1173.19 1041.58 1173.18 1038.97 1173.44 1041.36 1173.76Z" fill="#FAC39A" fill-rule="evenodd"/><path d="M811.4 1052.44C807.815 1053.15 800.183 1055.99 794.415 1058.77 788.445 1061.65 781.406 1066.47 778.081 1069.96 774.858 1073.33 770.016 1080.64 767.313 1086.19 764.523 1091.95 761.733 1100.64 760.837 1106.4 759.738 1113.5 759.724 1118.85 760.779 1124.44 761.603 1128.79 763.858 1135.62 765.78 1139.59 767.703 1143.56 772.415 1149.93 776.246 1153.77 780.076 1157.61 786.133 1162.24 789.717 1164.08 793.302 1165.92 800.125 1168.55 804.895 1169.92 811.429 1171.8 817.124 1172.26 828.023 1171.78 839.008 1171.31 844.385 1170.34 850.428 1167.74 854.793 1165.87 860.647 1162.72 863.437 1160.77 866.227 1158.81 870.924 1154.22 873.873 1150.57 876.865 1146.88 880.624 1139.73 882.315 1134.54 884.845 1126.74 885.278 1122.46 884.845 1109.28 884.396 1095.13 883.847 1092.4 879.872 1084.03 877.256 1078.52 872.5 1071.83 868.337 1067.81 864.449 1064.06 857.684 1059.26 853.319 1057.17 848.953 1055.08 841.784 1052.81 837.418 1052.12 833.053 1051.41 826.866 1050.92 823.686 1051.01 820.506 1051.08 814.984 1051.73 811.4 1052.44ZM1031.84 1052.76C1027.86 1053.78 1020.86 1056.35 1016.3 1058.5 1011.73 1060.64 1004.73 1065.63 1000.76 1069.6 996.623 1073.72 991.521 1080.98 988.832 1086.55 984.452 1095.65 984.135 1097.3 984.135 1111.52 984.135 1126.08 984.351 1127.19 989.194 1136.63 991.983 1142.07 996.855 1149.11 1000.03 1152.27 1003.21 1155.43 1007.77 1159.55 1010.15 1161.39 1012.54 1163.25 1019.04 1166.4 1024.61 1168.38 1032.56 1171.22 1037.52 1172 1047.74 1172 1057.93 1172 1062.94 1171.22 1070.86 1168.41 1076.43 1166.43 1083.5 1163.04 1086.58 1160.86 1089.65 1158.68 1094.28 1153.99 1096.85 1150.41 1099.43 1146.83 1102.75 1140.67 1104.27 1136.7 1106.21 1131.56 1107 1125.75 1107 1116.5 1107 1107.98 1106.02 1100.03 1104.17 1093.41 1102.3 1086.78 1099.19 1080.45 1095.13 1075.01 1091.72 1070.45 1085.52 1064.43 1081.34 1061.66 1077.17 1058.87 1070.5 1055.63 1066.53 1054.43 1062.55 1053.25 1054.75 1051.96 1049.18 1051.59 1043.33 1051.2 1036.01 1051.69 1031.84 1052.76Z" fill="#FEFDFE" fill-rule="evenodd"/><path d="M823.191 1092.5C820.008 1093.61 816.174 1095.67 814.67 1097.06 813.165 1098.45 811.053 1101.7 809.968 1104.29 808.883 1106.89 808 1111.28 808 1114.07 808 1116.86 809.143 1121.55 810.532 1124.51 811.921 1127.45 815.668 1131.71 818.851 1133.97 823.206 1137.06 826.258 1138.04 831.148 1138 835.272 1137.94 839.786 1136.67 843.446 1134.51 846.976 1132.43 850.275 1128.91 851.91 1125.49 853.906 1121.28 854.398 1117.87 853.834 1111.9 853.385 1107.24 851.924 1102.42 850.275 1100.31 848.741 1098.31 845.602 1095.63 843.302 1094.32 840.986 1093.02 836.82 1091.63 834.042 1091.21 831.25 1090.79 826.374 1091.37 823.191 1092.5ZM1030.8 1091.88C1028.01 1092.66 1024.52 1094.4 1023.05 1095.73 1021.57 1097.05 1019.14 1100.58 1017.62 1103.57 1016.12 1106.55 1014.89 1111.28 1014.89 1114.07 1014.89 1116.86 1016.19 1121.75 1017.78 1124.94 1019.37 1128.13 1022.79 1132.2 1025.38 1134 1028.91 1136.45 1032.13 1137.26 1038.3 1137.26 1044.24 1137.26 1047.59 1136.46 1050.42 1134.36 1052.56 1132.77 1055.59 1129.83 1057.15 1127.84 1058.7 1125.84 1060.32 1120.96 1060.77 1116.97 1061.36 1111.6 1060.87 1108.26 1058.84 1104.03 1057.35 1100.9 1053.84 1096.89 1051.06 1095.14 1048.28 1093.37 1043.72 1091.59 1040.93 1091.18 1038.14 1090.77 1033.6 1091.08 1030.8 1091.88Z" fill="#010001" fill-rule="evenodd"/><path d="M1362.26 1087.43 1392.76 971.905C1245.96 855.163 1262.26 677.292 1429.19 574.62 1596.11 471.947 1850.43 483.352 1997.24 600.094 2144.05 716.837 2127.74 894.707 1960.81 997.38 1837.61 1073.16 1660.96 1089.06 1514.34 1037.55Z" stroke="#000000" stroke-width="6.875" stroke-miterlimit="8" fill="#FFFFFF" fill-rule="evenodd"/></g></svg>